<svg width="21" height="21" viewBox="0 0 21 21" fill="none" xmlns="http://www.w3.org/2000/svg">
<path d="M10.5 0C4.70156 0 0 4.82344 0 10.7672C0 15.525 3.00937 19.5562 7.18125 20.9812C7.23977 20.994 7.29949 21.0002 7.35938 21C7.74844 21 7.89844 20.7141 7.89844 20.4656C7.89844 20.2078 7.88906 19.5328 7.88437 18.6328C7.53705 18.7142 7.18173 18.7567 6.825 18.7594C4.80469 18.7594 4.34531 17.1891 4.34531 17.1891C3.86719 15.9469 3.17813 15.6141 3.17813 15.6141C2.26406 14.9719 3.17344 14.9531 3.24375 14.9531H3.24844C4.30313 15.0469 4.85625 16.0687 4.85625 16.0687C5.38125 16.9875 6.08437 17.2453 6.7125 17.2453C7.12783 17.237 7.53673 17.1412 7.9125 16.9641C8.00625 16.2703 8.27812 15.7969 8.57812 15.525C6.24844 15.2531 3.79688 14.3297 3.79688 10.2047C3.79688 9.02812 4.20469 8.06719 4.875 7.31719C4.76719 7.04531 4.40625 5.94844 4.97812 4.46719C5.05483 4.44883 5.13368 4.44095 5.2125 4.44375C5.59219 4.44375 6.45 4.58906 7.86563 5.57344C9.58572 5.09218 11.4049 5.09218 13.125 5.57344C14.5406 4.58906 15.3984 4.44375 15.7781 4.44375C15.857 4.44095 15.9358 4.44883 16.0125 4.46719C16.5844 5.94844 16.2234 7.04531 16.1156 7.31719C16.7859 8.07187 17.1937 9.03281 17.1937 10.2047C17.1937 14.3391 14.7375 15.2484 12.3984 15.5156C12.7734 15.8484 13.1109 16.5047 13.1109 17.5078C13.1109 18.9469 13.0969 20.1094 13.0969 20.4609C13.0969 20.7141 13.2422 21 13.6312 21C13.6942 21.0003 13.7571 20.994 13.8187 20.9812C17.9953 19.5562 21 15.5203 21 10.7672C21 4.82344 16.2984 0 10.5 0Z" fill="white"/>
</svg>
